<?xml version="1.0" encoding="utf-8"?>
<!-- Generator: Adobe Illustrator 16.0.0, SVG Export Plug-In . SVG Version: 6.00 Build 0)  -->
<!DOCTYPE svg PUBLIC "-//W3C//DTD SVG 1.1//EN" "http://www.w3.org/Graphics/SVG/1.1/DTD/svg11.dtd">
<svg version="1.1" id="Layer_1" xmlns="http://www.w3.org/2000/svg" xmlns:xlink="http://www.w3.org/1999/xlink" x="0px" y="0px"
	 width="120px" height="70px" viewBox="-25 0 120 70" enable-background="new -25 0 120 70" xml:space="preserve">
<g id="g2483">
	<path id="path38" fill="#FFFFFF" d="M34.019,61.986l-6.192-3.575v-7.036c0.221-0.089,0.436-0.189,0.645-0.312
		c3.4-1.978,3.757-7.713,0.793-12.817c-2.964-5.102-8.124-7.637-11.525-5.662c-3.402,1.975-3.758,7.715-0.794,12.817
		c0.437,0.75,0.92,1.443,1.438,2.076v5.483l-7.205-4.159V22.409L8.54,20.886C6.286,25.099,4.988,29.9,4.988,35.011
		c0,16.245,12.911,29.468,29.031,29.989V61.986z"/>
	<path id="path40" fill="#FFFFFF" d="M61.465,20.895l-2.645,1.528v8.348l-4.965,2.817c-0.362-0.422-0.783-0.784-1.271-1.066
		c-3.401-1.976-8.563,0.56-11.526,5.662C38.096,43.286,38.45,49.023,41.852,51c3.402,1.975,8.562-0.559,11.526-5.662
		c0.64-1.104,1.125-2.232,1.458-3.352l3.986-2.31v9.124L36.021,61.965v3.034c16.103-0.54,28.99-13.755,28.99-29.987
		C65.012,29.903,63.717,25.104,61.465,20.895z"/>
	<path id="path42" fill="#FFFFFF" d="M12.218,20.695l7.109-4.104l4.556,2.639c-0.163,0.495-0.25,1.008-0.25,1.536
		c0,3.933,4.783,7.122,10.685,7.122c5.9,0,10.684-3.188,10.684-7.122c0-3.936-4.784-7.123-10.684-7.123
		c-1.316,0-2.577,0.159-3.742,0.45l-3.489-1.982l7.915-4.568l22.792,13.158c0.985-0.569,1.884-1.088,2.668-1.541
		C55.164,10.666,45.754,5,35.002,5C24.253,5,14.844,10.662,9.544,19.153C10.349,19.617,11.245,20.133,12.218,20.695z"/>
</g>
<g>
	<path fill="#CCCCCC" d="M56.594,64.062h0.815l2.698-7.531h1.355l2.698,7.531h0.815v0.937H62.04v-0.937h0.899l-0.66-1.883h-3
		l-0.659,1.883h0.912v0.937h-2.938V64.062z M61.979,61.221l-1.031-2.938c-0.12-0.348-0.145-0.647-0.145-0.647h-0.035
		c0,0-0.037,0.3-0.145,0.647l-1.043,2.938H61.979z"/>
	<path fill="#CCCCCC" d="M66.038,57.432h-1.007v-0.899h2.17V63.2c0,0.516,0.119,0.862,0.648,0.862c0.191,0,0.323-0.012,0.323-0.012
		l-0.012,0.959c0,0-0.24,0.024-0.517,0.024c-0.862,0-1.606-0.349-1.606-1.763V57.432z"/>
	<path fill="#CCCCCC" d="M69.83,66.498v-6.404c0-0.18-0.096-0.264-0.264-0.264h-0.744v-0.9h1.343c0.54,0,0.744,0.24,0.744,0.6v0.049
		c0,0.191-0.024,0.348-0.024,0.348h0.024c0,0,0.504-1.139,2.039-1.139c1.631,0,2.663,1.295,2.663,3.178
		c0,1.932-1.164,3.178-2.748,3.178c-1.331,0-1.883-1.031-1.883-1.031h-0.023c0,0,0.036,0.216,0.036,0.527v1.859h0.959v0.898h-3.07
		v-0.898H69.83z M72.684,64.135c0.959,0,1.752-0.779,1.752-2.158c0-1.319-0.709-2.172-1.728-2.172c-0.899,0-1.739,0.637-1.739,2.184
		C70.969,63.066,71.557,64.135,72.684,64.135z"/>
	<path fill="#CCCCCC" d="M76.502,64.1h0.959v-6.668h-1.02v-0.899h2.17v3.142c0,0.288-0.035,0.504-0.035,0.504H78.6
		c0.264-0.588,1.057-1.391,2.268-1.391c1.427,0,2.087,0.779,2.087,2.327V64.1H83.9v0.899h-2.11v-3.622
		c0-0.852-0.181-1.523-1.151-1.523c-1.188,0-2.027,1.008-2.027,2.304V64.1h0.959v0.899h-3.069L76.502,64.1L76.502,64.1z"/>
	<path fill="#CCCCCC" d="M88.141,61.27h0.385v-0.229c0-0.959-0.553-1.295-1.295-1.295c-0.959,0-1.739,0.587-1.739,0.587
		l-0.468-0.828c0,0,0.888-0.719,2.303-0.719c1.547,0,2.363,0.803,2.363,2.338v2.71c0,0.18,0.096,0.264,0.264,0.264h0.611v0.899
		h-1.211c-0.539,0-0.754-0.265-0.754-0.66v-0.084c0-0.239,0.047-0.396,0.047-0.396H88.62c0,0-0.528,1.283-2.003,1.283
		c-1.008,0-2.016-0.589-2.016-1.836C84.604,61.4,87.133,61.27,88.141,61.27z M86.869,64.243c1.031,0,1.667-1.056,1.667-1.968v-0.252
		h-0.3c-0.553,0-2.459,0.024-2.459,1.188C85.777,63.751,86.173,64.243,86.869,64.243z"/>
</g>
</svg>
