<?xml version="1.0" encoding="utf-8"?>
<!-- Generator: Adobe Illustrator 16.0.0, SVG Export Plug-In . SVG Version: 6.00 Build 0)  -->
<!DOCTYPE svg PUBLIC "-//W3C//DTD SVG 1.1//EN" "http://www.w3.org/Graphics/SVG/1.1/DTD/svg11.dtd">
<svg version="1.1" id="Layer_1" xmlns="http://www.w3.org/2000/svg" xmlns:xlink="http://www.w3.org/1999/xlink" x="0px" y="0px"
	 width="140px" height="70px" viewBox="-35 0 140 70" enable-background="new -35 0 140 70" xml:space="preserve">
<g>
	<path fill="#CCCCCC" d="M51.015,114.371h0.815l2.698-7.531h1.355l2.698,7.531h0.815v0.937h-2.937v-0.937h0.899l-0.66-1.883h-3
		l-0.659,1.883h0.912v0.937h-2.938V114.371z M56.399,111.529l-1.031-2.938c-0.12-0.348-0.145-0.647-0.145-0.647h-0.035
		c0,0-0.037,0.3-0.145,0.647l-1.043,2.938H56.399z"/>
	<path fill="#CCCCCC" d="M60.459,107.74h-1.007v-0.899h2.17v6.668c0,0.516,0.119,0.862,0.648,0.862c0.191,0,0.323-0.012,0.323-0.012
		l-0.012,0.959c0,0-0.24,0.024-0.517,0.024c-0.862,0-1.606-0.349-1.606-1.763V107.74z"/>
	<path fill="#CCCCCC" d="M64.251,116.807v-6.404c0-0.18-0.096-0.264-0.264-0.264h-0.744v-0.9h1.343c0.54,0,0.744,0.24,0.744,0.6
		v0.049c0,0.191-0.024,0.348-0.024,0.348h0.024c0,0,0.504-1.139,2.039-1.139c1.631,0,2.663,1.295,2.663,3.178
		c0,1.932-1.164,3.178-2.748,3.178c-1.331,0-1.883-1.031-1.883-1.031h-0.023c0,0,0.036,0.216,0.036,0.527v1.859h0.959v0.898h-3.07
		v-0.898H64.251z M67.104,114.443c0.959,0,1.752-0.779,1.752-2.158c0-1.319-0.709-2.172-1.728-2.172
		c-0.899,0-1.739,0.637-1.739,2.184C65.39,113.375,65.978,114.443,67.104,114.443z"/>
	<path fill="#CCCCCC" d="M70.923,114.408h0.959v-6.668h-1.02v-0.899h2.17v3.142c0,0.288-0.035,0.504-0.035,0.504h0.023
		c0.264-0.588,1.057-1.391,2.268-1.391c1.427,0,2.087,0.779,2.087,2.327v2.985h0.946v0.899h-2.11v-3.622
		c0-0.852-0.181-1.523-1.151-1.523c-1.188,0-2.027,1.008-2.027,2.304v1.942h0.959v0.899h-3.069L70.923,114.408L70.923,114.408z"/>
	<path fill="#CCCCCC" d="M82.562,111.578h0.385v-0.229c0-0.959-0.553-1.295-1.295-1.295c-0.959,0-1.739,0.587-1.739,0.587
		l-0.468-0.828c0,0,0.888-0.719,2.303-0.719c1.547,0,2.363,0.803,2.363,2.338v2.71c0,0.18,0.096,0.264,0.264,0.264h0.611v0.899
		h-1.211c-0.539,0-0.754-0.265-0.754-0.66v-0.084c0-0.239,0.047-0.396,0.047-0.396h-0.026c0,0-0.528,1.283-2.003,1.283
		c-1.008,0-2.016-0.589-2.016-1.836C79.024,111.709,81.554,111.578,82.562,111.578z M81.29,114.552c1.031,0,1.667-1.056,1.667-1.968
		v-0.252h-0.3c-0.553,0-2.459,0.024-2.459,1.188C80.198,114.06,80.594,114.552,81.29,114.552z"/>
</g>
<g opacity="0.5">
	<path fill="#FFFFFF" d="M2,62.908h1.237V55.44H2V54h4.746c0.771,0,1.31,0.058,1.849,0.276c0.932,0.363,1.572,1.223,1.572,2.387
		c0,0.976-0.451,1.791-1.267,2.213v0.029c1.149,0.35,1.674,1.354,1.674,2.445c0,1.441-0.932,2.46-2.053,2.81
		c-0.509,0.16-0.975,0.175-1.543,0.175H2V62.908z M6.964,58.221c0.815,0,1.267-0.553,1.267-1.354c0-0.51-0.189-0.961-0.597-1.179
		c-0.219-0.103-0.524-0.16-0.888-0.16H5.145v2.692H6.964z M7.066,62.807c0.247,0,0.523-0.015,0.742-0.116
		c0.524-0.219,0.83-0.801,0.83-1.456c0-0.888-0.554-1.499-1.5-1.499H5.145v3.071H7.066z"/>
	<path fill="#FFFFFF" d="M15.582,56.736c2.141,0,3.305,1.558,3.305,3.522c0,0.103,0,0.263-0.015,0.394l-0.029,0.232h-5.138
		c0.116,1.354,1.105,2.067,2.227,2.067c0.626,0,1.136-0.175,1.528-0.394c0.233-0.116,0.438-0.247,0.626-0.393l0.714,1.311
		c-0.219,0.188-0.495,0.349-0.801,0.509c-0.524,0.276-1.267,0.524-2.198,0.524c-2.46,0-3.988-1.791-3.988-3.887
		C11.812,58.338,13.355,56.736,15.582,56.736z M16.979,59.793c-0.043-1.033-0.64-1.63-1.44-1.63c-0.946,0-1.616,0.641-1.791,1.63
		H16.979z"/>
	<path fill="#FFFFFF" d="M20.853,58.294h-1.136v-1.383h1.193v-2.023h1.791v2.023h1.688v1.383h-1.688v3.13
		c0,1.28,0.961,1.44,1.484,1.44c0.103,0,0.189-0.014,0.248-0.014h0.087v1.514l-0.16,0.029c-0.102,0.015-0.232,0.015-0.407,0.015
		c-1.048,0-3.101-0.306-3.101-2.795V58.294z"/>
	<path fill="#FFFFFF" d="M29.558,59.75h0.466v-0.248c0-0.946-0.597-1.281-1.368-1.281c-0.567,0-1.062,0.175-1.455,0.35
		c-0.233,0.102-0.451,0.233-0.641,0.364l-0.685-1.281c0.233-0.175,0.495-0.335,0.801-0.466c0.51-0.232,1.252-0.451,2.14-0.451
		c1.994,0,3.058,1.019,3.058,2.926v2.97c0,0.219,0.102,0.32,0.319,0.32h0.67v1.383h-1.747c-0.684,0-0.945-0.364-0.945-0.786v-0.087
		c0-0.117,0.014-0.204,0.028-0.277c0.015-0.043,0.015-0.072,0.015-0.102h-0.029c-0.131,0.262-0.306,0.495-0.523,0.713
		c-0.394,0.364-0.946,0.714-1.819,0.714c-1.281,0-2.461-0.742-2.461-2.257C25.38,59.982,28.364,59.75,29.558,59.75z M28.32,63.127
		c1.005,0,1.718-1.077,1.718-2.009V60.87h-0.306c-0.742,0-2.489,0.117-2.489,1.237C27.243,62.676,27.637,63.127,28.32,63.127z"/>
</g>
<g>
	<polygon fill="#FFFFFF" points="7.988,32.01 31.994,50.014 31.994,42.512 1.987,20.007 1.987,50.014 7.988,50.014 	"/>
	<rect x="-20.218" y="20.007" fill="#FFFFFF" width="16.204" height="6.001"/>
	<line fill="#FFFFFF" x1="-22.018" y1="26.009" x2="-22.018" y2="32.01"/>
	<polygon fill="#FFFFFF" points="31.994,40.262 25.993,35.761 25.993,20.007 31.994,20.007 	"/>
	<rect x="-20.218" y="32.01" fill="#FFFFFF" width="16.204" height="6.002"/>
	<polyline fill="#FFFFFF" points="-22.018,38.012 -22.018,50.014 -28.02,50.014 -28.02,20.007 -22.018,20.007 -22.018,50.014 	"/>
	<path fill="#FFFFFF" d="M94.473,20.895c-0.882,0.509-1.763,1.019-2.645,1.528c0,2.783,0,5.565,0,8.348
		c-1.655,0.939-3.31,1.878-4.965,2.817c-0.362-0.422-0.783-0.784-1.271-1.066c-3.401-1.976-8.563,0.56-11.526,5.662
		c-2.963,5.103-2.608,10.84,0.793,12.816c3.402,1.975,8.562-0.559,11.526-5.662c0.64-1.104,1.125-2.232,1.458-3.352
		c1.329-0.77,2.657-1.54,3.986-2.31c0,3.042,0,6.083,0,9.124c-7.601,4.388-15.2,8.775-22.801,13.164c0,1.012,0,2.022,0,3.034
		c16.103-0.54,28.99-13.755,28.99-29.987C98.02,29.903,96.725,25.104,94.473,20.895z"/>
	<path fill="#FFFFFF" d="M67.026,61.986c-2.063-1.191-4.128-2.384-6.191-3.575c0-2.345,0-4.69,0-7.036
		c0.221-0.089,0.436-0.189,0.646-0.312c3.399-1.978,3.756-7.713,0.792-12.817c-2.964-5.102-8.124-7.637-11.524-5.662
		c-3.402,1.975-3.759,7.715-0.795,12.817c0.438,0.75,0.921,1.443,1.438,2.076c0,1.828,0,3.656,0,5.483
		c-2.401-1.386-4.803-2.772-7.205-4.159c0-8.797,0-17.594,0-26.392c-0.879-0.508-1.759-1.016-2.639-1.523
		c-2.254,4.213-3.553,9.014-3.553,14.125c0,16.245,12.911,29.468,29.031,29.989C67.026,63.996,67.026,62.99,67.026,61.986z"/>
	<path fill="#FFFFFF" d="M45.226,20.695c2.37-1.368,4.739-2.736,7.109-4.104c1.519,0.88,3.037,1.759,4.556,2.639
		c-0.163,0.495-0.25,1.008-0.25,1.536c0,3.933,4.783,7.122,10.686,7.122c5.899,0,10.684-3.188,10.684-7.122
		c0-3.936-4.784-7.123-10.684-7.123c-1.316,0-2.577,0.159-3.742,0.45c-1.163-0.661-2.326-1.321-3.489-1.982
		c2.639-1.522,5.276-3.045,7.915-4.568c7.598,4.386,15.194,8.772,22.792,13.158c0.985-0.569,1.884-1.088,2.668-1.541
		C88.172,10.666,78.762,5,68.01,5c-10.749,0-20.158,5.662-25.458,14.153C43.356,19.617,44.253,20.133,45.226,20.695z"/>
</g>
</svg>
